<svg xmlns="http://www.w3.org/2000/svg" version="1.1" xmlns:xlink="http://www.w3.org/1999/xlink" width="512" height="512" x="0" y="0" viewBox="0 0 512 512" style="enable-background:new 0 0 512 512" xml:space="preserve" class=""><g><path d="M321.313 321.509c4.382 9.311 6.832 19.712 6.832 30.685 0 39.845-32.301 72.145-72.145 72.145s-72.145-32.301-72.145-72.145 32.3-72.145 72.145-72.145c17.18 0 32.957 6.005 45.348 16.031" style="stroke-width:15;stroke-linecap:round;stroke-linejoin:round;stroke-miterlimit:10;" fill="none" stroke="#f9eae1" stroke-width="15" stroke-linecap="round" stroke-linejoin="round" stroke-miterlimit="10" data-original="#000000" opacity="1" class=""></path><path d="M407.784 340.618c-.613-7.024-6.267-12.562-13.293-13.147l-18.055-1.505c-3.164-14.592-8.936-28.185-16.763-40.348l11.736-13.871c4.555-5.382 4.637-13.296.104-18.696a132.998 132.998 0 0 0-7.816-8.555 132.732 132.732 0 0 0-8.555-7.816c-5.4-4.533-13.314-4.451-18.696.103l-13.871 11.737c-12.163-7.827-25.757-13.6-40.348-16.763l-1.505-18.055c-.586-7.026-6.123-12.681-13.147-13.293-3.815-.333-7.671-.522-11.575-.522s-7.76.189-11.575.522c-7.024.613-12.562 6.267-13.147 13.293l-1.505 18.055c-14.592 3.164-28.186 8.936-40.348 16.763l-13.871-11.737c-5.382-4.554-13.296-4.637-18.696-.103a132.998 132.998 0 0 0-8.555 7.816 133.023 133.023 0 0 0-7.816 8.555c-4.533 5.4-4.451 13.314.104 18.696l11.736 13.871c-7.827 12.163-13.6 25.757-16.763 40.348l-18.055 1.505c-7.026.585-12.68 6.123-13.293 13.147a133.005 133.005 0 0 0-.522 11.576c0 3.904.189 7.76.522 11.575.613 7.024 6.267 12.562 13.293 13.147l18.055 1.505c3.164 14.592 8.936 28.186 16.763 40.348l-11.736 13.87c-4.555 5.382-4.637 13.296-.104 18.697a133.264 133.264 0 0 0 7.816 8.555c2.76 2.76 5.621 5.353 8.555 7.816 5.4 4.533 13.314 4.451 18.696-.104l13.871-11.736c12.163 7.827 25.757 13.6 40.348 16.763l1.505 18.054c.586 7.026 6.123 12.681 13.147 13.293 3.815.333 7.671.523 11.575.523s7.76-.19 11.575-.523c7.024-.613 12.562-6.267 13.147-13.293l1.505-18.054c14.591-3.164 28.186-8.936 40.348-16.763l13.871 11.736c5.382 4.554 13.296 4.637 18.696.104a132.998 132.998 0 0 0 8.555-7.816 133.29 133.29 0 0 0 7.816-8.555c4.533-5.4 4.451-13.314-.104-18.697l-11.736-13.87c7.827-12.163 13.6-25.757 16.763-40.348l18.055-1.505c7.026-.586 12.68-6.123 13.293-13.147a133 133 0 0 0 .522-11.575c0-3.905-.189-7.76-.522-11.576zM288.065 167.823v-64.129h32.064L256 7.5l-64.129 96.194h32.064v64.129M392.274 223.935v-56.112h24.049l-48.097-72.146-48.097 72.146h24.048v32.064M119.726 223.935v-56.112H95.677l48.097-72.146 48.097 72.146h-24.048v32.064" style="stroke-width:15;stroke-linecap:round;stroke-linejoin:round;stroke-miterlimit:10;" fill="none" stroke="#f9eae1" stroke-width="15" stroke-linecap="round" stroke-linejoin="round" stroke-miterlimit="10" data-original="#000000" opacity="1" class=""></path></g></svg>