<svg xmlns="http://www.w3.org/2000/svg" version="1.1" xmlns:xlink="http://www.w3.org/1999/xlink" width="512" height="512" x="0" y="0" viewBox="0 0 64 64" style="enable-background:new 0 0 512 512" xml:space="preserve" class=""><g><path d="M11 22a1 1 0 0 0-1 1v6a1 1 0 0 0 1 1h6a1 1 0 0 0 1-1v-4.75l4.6-3.45-1.2-1.6-3.92 2.94A.971.971 0 0 0 17 22zm3.6 4.8 1.4-1.05V28h-4v-4h3l-1.6 1.2zM17.48 34.14A.971.971 0 0 0 17 34h-6a1 1 0 0 0-1 1v6a1 1 0 0 0 1 1h6a1 1 0 0 0 1-1v-4.75l4.6-3.45-1.2-1.6zM16 40h-4v-4h3l-1.6 1.2 1.2 1.6 1.4-1.05zM21.4 43.2l-3.92 2.94A.971.971 0 0 0 17 46h-6a1 1 0 0 0-1 1v6a1 1 0 0 0 1 1h6a1 1 0 0 0 1-1v-4.75l4.6-3.45zM16 52h-4v-4h3l-1.6 1.2 1.2 1.6 1.4-1.05zM26 20h14v2H26zM26 26h14v2H26zM26 32h10v2H26zM26 38h4v2h-4z" fill="#2e632f" opacity="1" data-original="#000000"></path><path d="m62.092 17.737-2.829-2.829a1 1 0 0 0-1.414 0L48 24.757V11a3 3 0 0 0-3-3h-9V7a1 1 0 0 0-1-1h-4V3a1 1 0 0 0-1-1H20a1 1 0 0 0-1 1v3h-4a1 1 0 0 0-1 1v1H5a3 3 0 0 0-3 3v48a3 3 0 0 0 3 3h40a3 3 0 0 0 3-3V33.243l14.092-14.092a1 1 0 0 0 0-1.414zM33.1 45.314 31.686 43.9l23.335-23.335 1.414 1.414zm-2.63.2 1.017 1.017-2.543 1.526zM45 10a1 1 0 0 1 1 1v15.757l-2 2V13a1 1 0 0 0-1-1h-7v-2zM21 4h8v2h-8zm-5 4h18v6H16zm19 8a1 1 0 0 0 1-1v-1h6v16.757L29.565 43.192a1 1 0 0 0-.15.193l-4.243 7.071A.993.993 0 0 0 26 51.965V52h14v-2H29.591l4.024-2.415a1 1 0 0 0 .193-.15L42 39.243V56H8V14h6v1a1 1 0 0 0 1 1zm11 43a1 1 0 0 1-1 1H5a1 1 0 0 1-1-1V11a1 1 0 0 1 1-1h9v2H7a1 1 0 0 0-1 1v44a1 1 0 0 0 1 1h36a1 1 0 0 0 1-1V37.243l2-2zm11.849-38.435-1.414-1.414 2.121-2.122 1.415 1.415z" fill="#2e632f" opacity="1" data-original="#000000"></path></g></svg>